<svg xmlns="http://www.w3.org/2000/svg" xmlns:xlink="http://www.w3.org/1999/xlink" width="500" zoomAndPan="magnify" viewBox="0 0 375 374.999991" height="500" preserveAspectRatio="xMidYMid meet" version="1.0"><defs><clipPath id="538d1d2412"><path d="M 26 61 L 352 61 L 352 311.644531 L 26 311.644531 Z M 26 61 " clip-rule="nonzero"/></clipPath><clipPath id="59aa15bd12"><path d="M 156.523438 101 L 249.523438 101 L 249.523438 224.710938 L 156.523438 224.710938 Z M 156.523438 101 " clip-rule="nonzero"/></clipPath></defs><g clip-path="url(#538d1d2412)"><path fill="#ed2224" d="M 251.679688 311.347656 C 250.144531 306.636719 250.09375 300.976562 249.042969 296.058594 C 248.234375 292.015625 247.09375 288.074219 245.617188 284.222656 C 243.351562 278.558594 239.882812 273.371094 234.34375 270.507812 C 223.070312 264.664062 207.851562 267.644531 195.96875 269.410156 C 159.320312 274.863281 117.835938 279.578125 82.160156 265.613281 C 11.660156 238.015625 7.957031 127.707031 70.878906 89.71875 C 121.96875 58.875 183.101562 57.597656 240.59375 65.523438 C 269.964844 69.574219 302.40625 76.070312 324.964844 96.808594 C 352.058594 121.722656 353.769531 161.414062 349.183594 195.457031 C 344.515625 230.136719 316.949219 250.789062 283.882812 257.660156 C 279.066406 258.664062 278.851562 265.667969 277.800781 269.488281 C 273.777344 284.089844 268.394531 306.449219 251.722656 311.488281 Z M 251.679688 311.347656 " fill-opacity="1" fill-rule="nonzero"/></g><g clip-path="url(#59aa15bd12)"><path fill="#ffffff" d="M 164.835938 224.628906 C 167.542969 224.628906 170.636719 223.472656 173.828125 221.253906 L 242.660156 174.269531 C 247.105469 171.277344 249.523438 167.128906 249.523438 162.789062 C 249.523438 158.449219 247.105469 154.300781 242.660156 151.308594 L 173.925781 104.324219 C 170.734375 102.105469 167.542969 101.042969 164.835938 101.042969 C 159.714844 101.042969 156.523438 105.191406 156.523438 112.042969 L 156.523438 213.632812 C 156.523438 220.480469 159.714844 224.628906 164.835938 224.628906 Z M 164.835938 224.628906 " fill-opacity="1" fill-rule="nonzero"/></g></svg>